<svg id="calendar4" xmlns="http://www.w3.org/2000/svg" width="24" height="24" viewBox="0 0 24 24" >
  <g id="Group_11331" data-name="Group 11331" transform="translate(5.143)">
    <g id="Group_11330" data-name="Group 11330">
      <path id="Path_2427" data-name="Path 2427" d="M103.257,0a.857.857,0,0,0-.857.857V2.571h1.714V.857A.857.857,0,0,0,103.257,0Z" transform="translate(-102.4)" fill="#000"/>
    </g>
  </g>
  <g id="Group_11333" data-name="Group 11333" transform="translate(17.143)">
    <g id="Group_11332" data-name="Group 11332">
      <path id="Path_2428" data-name="Path 2428" d="M342.19,0a.857.857,0,0,0-.857.857V2.571h1.714V.857A.857.857,0,0,0,342.19,0Z" transform="translate(-341.333)" fill="#000"/>
    </g>
  </g>
  <g id="Group_11335" data-name="Group 11335" transform="translate(0 2.571)">
    <g id="Group_11334" data-name="Group 11334">
      <path id="Path_2429" data-name="Path 2429" d="M21.429,51.2H18.857v3.429a.857.857,0,1,1-1.714,0V51.2H6.857v3.429a.857.857,0,1,1-1.714,0V51.2H2.571A2.571,2.571,0,0,0,0,53.771V70.057a2.571,2.571,0,0,0,2.571,2.571H21.429A2.571,2.571,0,0,0,24,70.057V53.771A2.571,2.571,0,0,0,21.429,51.2Zm.857,18.857a.857.857,0,0,1-.857.857H2.571a.857.857,0,0,1-.857-.857V58.914H22.286Z" transform="translate(0 -51.2)" fill="#000"/>
    </g>
  </g>
  <g id="Group_11337" data-name="Group 11337" transform="translate(4.286 12)">
    <g id="Group_11336" data-name="Group 11336">
      <path id="Path_2430" data-name="Path 2430" d="M87.9,238.933H86.19a.857.857,0,0,0,0,1.714H87.9a.857.857,0,0,0,0-1.714Z" transform="translate(-85.333 -238.933)" fill="#000"/>
    </g>
  </g>
  <g id="Group_11339" data-name="Group 11339" transform="translate(10.286 12)">
    <g id="Group_11338" data-name="Group 11338">
      <path id="Path_2431" data-name="Path 2431" d="M207.371,238.933h-1.714a.857.857,0,0,0,0,1.714h1.714a.857.857,0,1,0,0-1.714Z" transform="translate(-204.8 -238.933)" fill="#000"/>
    </g>
  </g>
  <g id="Group_11341" data-name="Group 11341" transform="translate(16.286 12)">
    <g id="Group_11340" data-name="Group 11340">
      <path id="Path_2432" data-name="Path 2432" d="M326.838,238.933h-1.714a.857.857,0,0,0,0,1.714h1.714a.857.857,0,1,0,0-1.714Z" transform="translate(-324.267 -238.933)" fill="#000"/>
    </g>
  </g>
  <g id="Group_11343" data-name="Group 11343" transform="translate(4.286 15.429)">
    <g id="Group_11342" data-name="Group 11342">
      <path id="Path_2433" data-name="Path 2433" d="M87.9,307.2H86.19a.857.857,0,0,0,0,1.714H87.9a.857.857,0,1,0,0-1.714Z" transform="translate(-85.333 -307.2)" fill="#000"/>
    </g>
  </g>
  <g id="Group_11345" data-name="Group 11345" transform="translate(10.286 15.429)">
    <g id="Group_11344" data-name="Group 11344">
      <path id="Path_2434" data-name="Path 2434" d="M207.371,307.2h-1.714a.857.857,0,1,0,0,1.714h1.714a.857.857,0,1,0,0-1.714Z" transform="translate(-204.8 -307.2)" fill="#000"/>
    </g>
  </g>
  <g id="Group_11347" data-name="Group 11347" transform="translate(16.286 15.429)">
    <g id="Group_11346" data-name="Group 11346">
      <path id="Path_2435" data-name="Path 2435" d="M326.838,307.2h-1.714a.857.857,0,0,0,0,1.714h1.714a.857.857,0,1,0,0-1.714Z" transform="translate(-324.267 -307.2)" fill="#000"/>
    </g>
  </g>
  <g id="Group_11349" data-name="Group 11349" transform="translate(4.286 18.857)">
    <g id="Group_11348" data-name="Group 11348">
      <path id="Path_2436" data-name="Path 2436" d="M87.9,375.467H86.19a.857.857,0,1,0,0,1.714H87.9a.857.857,0,1,0,0-1.714Z" transform="translate(-85.333 -375.467)" fill="#000"/>
    </g>
  </g>
  <g id="Group_11351" data-name="Group 11351" transform="translate(10.286 18.857)">
    <g id="Group_11350" data-name="Group 11350">
      <path id="Path_2437" data-name="Path 2437" d="M207.371,375.467h-1.714a.857.857,0,1,0,0,1.714h1.714a.857.857,0,1,0,0-1.714Z" transform="translate(-204.8 -375.467)" fill="#000"/>
    </g>
  </g>
  <g id="Group_11353" data-name="Group 11353" transform="translate(16.286 18.857)">
    <g id="Group_11352" data-name="Group 11352">
      <path id="Path_2438" data-name="Path 2438" d="M326.838,375.467h-1.714a.857.857,0,0,0,0,1.714h1.714a.857.857,0,1,0,0-1.714Z" transform="translate(-324.267 -375.467)" fill="#000"/>
    </g>
  </g>
</svg>
