<svg xmlns="http://www.w3.org/2000/svg" width="14.181" height="12" viewBox="0 0 14.181 12">
  <g id="log-out" transform="translate(-3.375 -5.625)">
    <path id="Path_2004" data-name="Path 2004" d="M7.193,11.625a.545.545,0,0,1,.545-.545h4.909V7.534a2.15,2.15,0,0,0-2.182-1.909H5.284A1.911,1.911,0,0,0,3.375,7.534v8.181a1.911,1.911,0,0,0,1.909,1.909h5.454a1.911,1.911,0,0,0,1.909-1.909V12.17H7.738A.545.545,0,0,1,7.193,11.625Z" transform="translate(0)" fill="#000"/>
    <path id="Path_2005" data-name="Path 2005" d="M27.249,14.152l-2.727-2.727a.545.545,0,0,0-.771.771l1.8,1.8H22.5v1.091h3.047l-1.8,1.8a.545.545,0,1,0,.771.771l2.727-2.727A.545.545,0,0,0,27.249,14.152Z" transform="translate(-9.853 -2.912)" fill="#000"/>
  </g>
</svg>
